<?xml version="1.0" standalone="no"?>
<!DOCTYPE svg PUBLIC "-//W3C//DTD SVG 20010904//EN"
 "http://www.w3.org/TR/2001/REC-SVG-20010904/DTD/svg10.dtd">
<svg version="1.0" xmlns="http://www.w3.org/2000/svg"
 width="100.000000pt" height="100.000000pt" viewBox="0 0 100.000000 100.000000"
 preserveAspectRatio="xMidYMid meet">
<metadata>
Created by potrace 1.11, written by Peter Selinger 2001-2013
</metadata>
<g transform="translate(0.000000,100.000000) scale(0.100000,-0.100000)"
fill="#000000" stroke="none">
<path d="M350 990 c0 -5 -13 -10 -30 -10 -16 0 -30 -4 -30 -10 0 -5 -11 -10
-25 -10 -14 0 -25 -4 -25 -10 0 -5 -7 -10 -15 -10 -20 0 -145 -125 -145 -145
0 -8 -4 -15 -10 -15 -5 0 -10 -9 -10 -20 0 -11 -4 -20 -10 -20 -5 0 -10 -11
-10 -25 0 -14 -4 -25 -10 -25 -5 0 -10 -13 -10 -30 0 -16 -4 -30 -10 -30 -6 0
-10 -50 -10 -130 0 -80 4 -130 10 -130 6 0 10 -13 10 -30 0 -16 5 -30 10 -30
6 0 10 -11 10 -25 0 -14 5 -25 10 -25 6 0 10 -9 10 -20 0 -11 5 -20 10 -20 6
0 10 -7 10 -15 0 -20 125 -145 145 -145 8 0 15 -4 15 -10 0 -5 11 -10 25 -10
14 0 25 -4 25 -10 0 -5 14 -10 30 -10 17 0 30 -4 30 -10 0 -6 57 -10 150 -10
93 0 150 4 150 10 0 6 14 10 30 10 17 0 30 5 30 10 0 6 11 10 25 10 14 0 25 5
25 10 0 6 7 10 15 10 20 0 145 125 145 145 0 8 5 15 10 15 6 0 10 9 10 20 0
11 5 20 10 20 6 0 10 11 10 25 0 14 5 25 10 25 6 0 10 14 10 30 0 17 5 30 10
30 6 0 10 50 10 130 0 80 -4 130 -10 130 -5 0 -10 14 -10 30 0 17 -4 30 -10
30 -5 0 -10 11 -10 25 0 14 -4 25 -10 25 -5 0 -10 9 -10 20 0 11 -4 20 -10 20
-5 0 -10 7 -10 15 0 20 -125 145 -145 145 -8 0 -15 5 -15 10 0 6 -11 10 -25
10 -14 0 -25 5 -25 10 0 6 -13 10 -30 10 -16 0 -30 5 -30 10 0 6 -57 10 -150
10 -93 0 -150 -4 -150 -10z m231 -50 c235 -45 399 -275 361 -506 -32 -196
-180 -344 -376 -376 -289 -48 -556 219 -508 508 42 252 277 420 523 374z"/>
<path d="M413 910 c-249 -53 -395 -326 -302 -564 27 -67 43 -84 64 -66 14 12
13 14 -4 27 -11 7 -28 38 -37 68 -15 48 -16 61 -4 111 8 31 19 58 25 61 17 6
139 -24 176 -42 16 -9 38 -29 48 -46 14 -23 20 -26 24 -15 9 24 49 45 121 65
l67 19 8 -22 c33 -87 35 -95 24 -119 -11 -23 -9 -25 26 -36 21 -6 46 -20 57
-32 18 -21 18 -21 -16 -51 -58 -49 -118 -72 -185 -71 -58 1 -60 0 -60 -26 0
-14 -4 -38 -8 -53 -6 -24 -4 -28 20 -34 43 -11 162 10 226 41 33 15 83 51 112
80 213 213 137 574 -144 685 -60 23 -176 33 -238 20z m83 -131 c10 -17 -13
-36 -27 -22 -12 12 -4 33 11 33 5 0 12 -5 16 -11z m-96 -19 c25 -25 25 -31 -1
-64 -11 -14 -16 -26 -10 -26 18 0 43 -48 36 -70 -10 -33 -57 -50 -137 -50 -68
0 -71 1 -50 16 20 14 22 24 22 99 0 75 -2 85 -22 99 -21 15 -17 16 60 16 69 0
85 -3 102 -20z m331 -1 c5 -8 9 -22 9 -31 0 -12 -8 -9 -30 14 -26 25 -36 29
-63 24 -47 -9 -77 -48 -77 -99 0 -50 18 -80 60 -97 59 -24 108 39 58 74 -22
15 -21 16 26 16 37 0 46 -3 39 -12 -6 -7 -13 -25 -17 -40 -12 -51 -88 -73
-146 -43 -38 20 -50 43 -50 100 0 40 5 52 35 82 34 34 38 35 91 31 33 -3 60
-11 65 -19z m-231 -113 c0 -56 3 -67 22 -80 21 -15 20 -16 -37 -16 -57 0 -58
1 -37 16 18 12 22 25 22 65 0 44 -2 49 -22 49 -20 1 -20 2 7 15 17 7 33 14 38
14 4 1 7 -28 7 -63z"/>
<path d="M308 759 c-12 -6 -18 -22 -18 -44 0 -34 1 -35 38 -35 43 0 62 14 62
47 0 35 -46 54 -82 32z"/>
<path d="M290 625 c0 -38 4 -47 24 -56 36 -17 80 7 84 46 5 37 -19 55 -70 55
l-38 0 0 -45z"/>
<path d="M498 411 c-10 -16 -15 -18 -28 -8 -13 10 -13 10 -3 -3 9 -12 7 -23
-12 -54 -21 -35 -23 -37 -30 -16 -4 12 -9 19 -12 17 -2 -3 0 -14 6 -26 8 -14
8 -27 -1 -45 -6 -15 -9 -28 -7 -30 2 -2 24 -6 49 -9 l45 -5 -37 11 c-38 13
-59 26 -36 24 7 -1 32 2 55 7 27 5 50 3 65 -4 22 -11 22 -10 4 4 -19 15 -18
16 20 17 27 2 31 3 13 6 -14 2 -55 -3 -90 -11 -35 -8 -65 -13 -67 -12 -7 8 23
56 34 56 7 0 16 4 19 10 4 6 -1 7 -11 3 -12 -5 -8 7 15 40 18 26 30 47 27 47
-3 0 -11 -9 -18 -19z"/>
<path d="M253 403 c1 -12 7 -25 14 -27 23 -9 14 -28 -9 -21 -18 5 -20 4 -8 -4
8 -6 22 -8 31 -6 9 3 24 -4 35 -16 l19 -22 -30 6 c-16 3 -39 8 -50 11 -11 4
-5 -1 14 -10 19 -8 44 -13 57 -10 17 5 28 -1 44 -21 20 -26 21 -28 4 -32 -10
-2 -26 7 -36 19 -10 12 -18 19 -18 14 0 -4 8 -16 18 -27 16 -19 16 -20 -10
-15 -15 3 -25 2 -23 -2 3 -4 -8 -10 -23 -13 -18 -4 -31 -1 -39 11 -7 8 -13 11
-13 5 0 -7 5 -15 12 -19 8 -5 6 -10 -8 -16 -14 -6 -11 -7 10 -3 23 5 27 3 22
-10 -3 -10 -2 -14 5 -10 6 4 8 13 5 21 -3 8 0 14 7 14 7 0 23 3 36 7 19 5 22
3 17 -8 -4 -8 -1 -6 7 4 8 9 24 17 36 17 l22 0 -23 -32 c-13 -18 -30 -39 -38
-46 -10 -9 -10 -11 -1 -6 10 5 12 1 7 -17 -4 -13 4 -1 18 27 33 72 62 87 36
19 -5 -14 -6 -24 -1 -21 5 3 12 17 15 31 6 24 -7 56 -42 97 -8 10 -15 35 -16
58 -1 22 -7 45 -13 51 -7 7 -7 -1 0 -30 14 -50 4 -61 -28 -31 -18 17 -22 27
-15 40 6 12 5 17 -5 17 -7 0 -11 -6 -8 -14 9 -24 -6 -14 -21 15 -13 24 -15 25
-13 5z"/>
</g>
</svg>
