<?xml version="1.0" standalone="no"?>
<!DOCTYPE svg PUBLIC "-//W3C//DTD SVG 1.1//EN" "http://www.w3.org/Graphics/SVG/1.1/DTD/svg11.dtd" >
<svg xmlns="http://www.w3.org/2000/svg" xmlns:xlink="http://www.w3.org/1999/xlink" version="1.1">
<metadata>
Created by FontForge 20170731 at Tue Oct 10 20:49:12 2017
 By Aleksey,,,
Copyright wklimpert 2017
</metadata>
<defs>
<font id="Trash-Dash" horiz-adv-x="2891" >
  <font-face 
    font-family="Trash Dash"
    font-weight="400"
    font-stretch="normal"
    units-per-em="4096"
    panose-1="0 0 4 0 0 0 0 0 0 0"
    ascent="4096"
    descent="0"
    x-height="4096"
    cap-height="4096"
    bbox="0 -722 4096 4096"
    underline-thickness="204"
    underline-position="103"
    unicode-range="U+0020-007A"
  />
<missing-glyph horiz-adv-x="0" 
d="M2048 581v651h-652v-651h652zM2699 1343v651h-1303v-651h1303zM2048 2101v651h-652v-651h652zM2699 2863v647h-651q-271 0 -459 -189q-193 -192 -193 -458h1303zM0 0v4096h4096v-4096h-4096z" />
    <glyph glyph-name=".notdef" horiz-adv-x="0" 
d="M2048 581v651h-652v-651h652zM2699 1343v651h-1303v-651h1303zM2048 2101v651h-652v-651h652zM2699 2863v647h-651q-271 0 -459 -189q-193 -192 -193 -458h1303zM0 0v4096h4096v-4096h-4096z" />
    <glyph glyph-name="glyph1" horiz-adv-x="0" 
 />
    <glyph glyph-name="glyph2" horiz-adv-x="1204" 
 />
    <glyph glyph-name="space" unicode=" " horiz-adv-x="1204" 
 />
    <glyph glyph-name="comma" unicode="," horiz-adv-x="1686" 
d="M240 -722v241h723v-241h-723zM0 -481v241h240v-241h-240zM963 -481v241h241v-241h-241zM240 -240v480h482v-240h-241v-240h-241zM0 240v482h240v-482h-240zM1204 -240v962h241v-962h-241zM240 722v241h241v-241h-241zM963 722v241h241v-241h-241zM481 963v241h482v-241
h-482z" />
    <glyph glyph-name="hyphen" unicode="-" 
d="M240 1445v241h2169v-241h-2169zM0 1686v723h240v-723h-240zM2409 1686v723h241v-723h-241zM240 2409v241h2169v-241h-2169z" />
    <glyph glyph-name="period" unicode="." horiz-adv-x="1686" 
d="M481 0v240h482v-240h-482zM240 240v241h241v-241h-241zM963 240v241h241v-241h-241zM0 481v482h240v-482h-240zM1204 481v482h241v-482h-241zM240 963v241h241v-241h-241zM963 963v241h241v-241h-241zM481 1204v241h482v-241h-482z" />
    <glyph glyph-name="zero" unicode="0" 
d="M722 0v240h1205v-240h-1205zM481 240v241h241v-241h-241zM1927 240v241h241v-241h-241zM240 481v482h241v-482h-241zM2168 481v482h241v-482h-241zM963 1445v723h241v-482h241v-241h-482zM0 963v2169h240v-2169h-240zM2409 963v2169h241v-2169h-241zM240 3132v482h241
v-482h-241zM2168 3132v482h241v-482h-241zM481 3614v241h241v-241h-241zM1927 3614v241h241v-241h-241zM722 3855v241h1205v-241h-1205z" />
    <glyph glyph-name="one" unicode="1" horiz-adv-x="2409" 
d="M1204 0v240h723v-240h-723zM963 240v2410h-482v241h723v-2651h-241zM240 2891v241h241v-241h-241zM0 3132v482h240v-482h-240zM240 3614v241h241v-241h-241zM1927 240v3615h241v-3615h-241zM481 3855v241h1446v-241h-1446z" />
    <glyph glyph-name="two" unicode="2" 
d="M481 0v240h1928v-240h-1928zM240 240v241h241v-241h-241zM2409 240v723h241v-723h-241zM1204 963v241h1205v-241h-1205zM963 1204v241h241v-241h-241zM0 481v1205h240v-1205h-240zM1204 1445v241h482v-241h-482zM240 1686v241h241v-241h-241zM1686 1686v241h241v-241
h-241zM481 1927v241h241v-241h-241zM1927 1927v241h241v-241h-241zM2168 2168v241h241v-241h-241zM722 2168v241h-482v241h723v241h482v-241h-241v-241h-241v-241h-241zM0 2650v723h240v-723h-240zM2409 2409v964h241v-964h-241zM240 3373v241h241v-241h-241zM2168 3373v241
h241v-241h-241zM481 3614v241h241v-241h-241zM1927 3614v241h241v-241h-241zM722 3855v241h1205v-241h-1205z" />
    <glyph glyph-name="three" unicode="3" 
d="M722 0v240h1205v-240h-1205zM481 240v241h241v-241h-241zM1927 240v241h241v-241h-241zM240 481v241h241v-241h-241zM2168 481v241h241v-241h-241zM963 963v241h482v-241h-482zM0 722v723h240v-723h-240zM722 1204v241h241v-241h-241zM240 1445v241h482v-241h-482z
M1445 1204v482h241v-482h-241zM2409 722v964h241v-964h-241zM1204 1686v241h241v-241h-241zM2168 1686v241h241v-241h-241zM963 1927v241h241v-241h-241zM1927 1927v241h241v-241h-241zM1204 2168v241h241v-241h-241zM2168 2168v241h241v-241h-241zM240 2409v241h482v-241
h-482zM722 2650v241h241v-241h-241zM1445 2409v482h241v-482h-241zM963 2891v241h482v-241h-482zM0 2650v723h240v-723h-240zM2409 2409v964h241v-964h-241zM240 3373v241h241v-241h-241zM2168 3373v241h241v-241h-241zM481 3614v241h241v-241h-241zM1927 3614v241h241v-241
h-241zM722 3855v241h1205v-241h-1205z" />
    <glyph glyph-name="four" unicode="4" 
d="M1686 0v240h723v-240h-723zM1445 240v1446h241v-1446h-241zM481 1686v241h964v-241h-964zM240 1927v241h241v-241h-241zM1204 2409v241h241v-241h-241zM0 2168v1687h240v-1687h-240zM963 2650v1205h241v-1205h-241zM1445 2650v1205h241v-1205h-241zM2409 240v3615h241
v-3615h-241zM240 3855v241h723v-241h-723zM1686 3855v241h723v-241h-723z" />
    <glyph glyph-name="five" unicode="5" 
d="M481 0v240h1687v-240h-1687zM240 240v241h241v-241h-241zM2168 240v241h241v-241h-241zM0 481v723h240v-723h-240zM722 963v241h482v-241h-482zM240 1204v241h482v-241h-482zM1204 1204v241h241v-241h-241zM963 1445v241h241v-241h-241zM240 1686v241h723v-241h-723z
M2409 481v1446h241v-1446h-241zM2168 1927v241h241v-241h-241zM1927 2168v241h241v-241h-241zM1204 2409v241h723v-241h-723zM963 2650v241h241v-241h-241zM1204 2891v241h1205v-241h-1205zM0 1927v1928h240v-1928h-240zM2409 3132v723h241v-723h-241zM240 3855v241h2169
v-241h-2169z" />
    <glyph glyph-name="six" unicode="6" 
d="M722 0v240h1446v-240h-1446zM481 240v241h241v-241h-241zM2168 240v241h241v-241h-241zM240 481v482h241v-482h-241zM1204 963v482h241v-241h241v-241h-482zM2409 481v1446h241v-1446h-241zM2168 1927v241h241v-241h-241zM1204 2168v241h964v-241h-964zM963 2409v241h241
v-241h-241zM1204 2650v241h241v-241h-241zM0 963v2169h240v-2169h-240zM1445 2891v241h964v-241h-964zM240 3132v482h241v-482h-241zM481 3614v241h241v-241h-241zM2409 3132v723h241v-723h-241zM722 3855v241h1687v-241h-1687z" />
    <glyph glyph-name="seven" unicode="7" 
d="M722 0v240h723v-240h-723zM481 240v964h241v-964h-241zM1445 240v1205h241v-1205h-241zM722 1204v964h241v-964h-241zM1686 1445v964h241v-964h-241zM963 2168v482h241v-482h-241zM1927 2409v482h241v-482h-241zM1204 2650v241h-964v241h1205v-482h-241zM2168 2891v241
h241v-241h-241zM0 3132v723h240v-723h-240zM2409 3132v723h241v-723h-241zM240 3855v241h2169v-241h-2169z" />
    <glyph glyph-name="eight" unicode="8" 
d="M963 0v240h723v-240h-723zM481 240v241h482v-241h-482zM1686 240v241h482v-241h-482zM240 481v241h241v-241h-241zM2168 481v241h241v-241h-241zM963 963v241h241v241h241v-482h-482zM0 722v964h240v-964h-240zM2409 722v964h241v-964h-241zM240 1686v241h241v-241h-241z
M2168 1686v241h241v-241h-241zM481 1927v241h241v-241h-241zM1927 1927v241h241v-241h-241zM722 2168v241h241v-241h-241zM1686 2168v241h241v-241h-241zM481 2409v241h241v-241h-241zM1927 2409v241h241v-241h-241zM1204 2891v241h241v-241h-241zM963 3132v241h241v-241
h-241zM240 2650v964h241v-964h-241zM2168 2650v964h241v-964h-241zM481 3614v241h241v-241h-241zM1927 3614v241h241v-241h-241zM722 3855v241h1205v-241h-1205z" />
    <glyph glyph-name="nine" unicode="9" 
d="M1686 0v240h723v-240h-723zM1445 240v1446h-482v241h723v-1687h-241zM481 1927v241h482v-241h-482zM240 2168v241h241v-241h-241zM963 2650v241h241v241h241v-482h-482zM0 2409v964h240v-964h-240zM240 3373v241h241v-241h-241zM2409 240v3374h241v-3374h-241zM481 3614
v241h482v-241h-482zM2168 3614v241h241v-241h-241zM963 3855v241h1205v-241h-1205z" />
    <glyph glyph-name="colon" unicode=":" horiz-adv-x="1686" 
d="M481 240v241h482v-241h-482zM240 481v241h241v-241h-241zM963 481v241h241v-241h-241zM0 722v482h240v-482h-240zM1204 722v482h241v-482h-241zM240 1204v241h241v-241h-241zM963 1204v241h241v-241h-241zM481 1445v241h482v-241h-482zM481 2409v241h482v-241h-482z
M240 2650v241h241v-241h-241zM963 2650v241h241v-241h-241zM0 2891v482h240v-482h-240zM1204 2891v482h241v-482h-241zM240 3373v241h241v-241h-241zM963 3373v241h241v-241h-241zM481 3614v241h482v-241h-482z" />
    <glyph glyph-name="A" unicode="A" 
d="M240 0v240h723v-240h-723zM1686 0v240h723v-240h-723zM963 240v482h241v-482h-241zM1445 240v482h241v-482h-241zM1204 722v241h241v-241h-241zM963 1927v482h241v-241h241v-241h-482zM0 240v2892h240v-2892h-240zM2409 240v2892h241v-2892h-241zM240 3132v482h241v-482
h-241zM2168 3132v482h241v-482h-241zM481 3614v241h241v-241h-241zM1927 3614v241h241v-241h-241zM722 3855v241h1205v-241h-1205z" />
    <glyph glyph-name="B" unicode="B" 
d="M240 0v240h1928v-240h-1928zM2168 240v241h241v-241h-241zM2409 481v1205h241v-1205h-241zM2168 1686v482h241v-482h-241zM1927 2168v241h241v-241h-241zM2168 2409v241h241v-241h-241zM963 963v1928h241v-1205h241v-241h-241v-241h241v241h241v-482h-723zM1204 2891v241
h241v-241h-241zM2409 2650v964h241v-964h-241zM0 240v3615h240v-3615h-240zM2168 3614v241h241v-241h-241zM240 3855v241h1928v-241h-1928z" />
    <glyph glyph-name="C" unicode="C" 
d="M481 0v240h1687v-240h-1687zM240 240v241h241v-241h-241zM2168 240v241h241v-241h-241zM1204 963v241h482v-241h-482zM2409 481v723h241v-723h-241zM1686 1204v241h723v-241h-723zM963 1204v1687h241v-1687h-241zM1686 2650v241h723v-241h-723zM1204 2891v241h482v-241
h-482zM0 481v3133h240v-3133h-240zM2409 2891v723h241v-723h-241zM240 3614v241h241v-241h-241zM2168 3614v241h241v-241h-241zM481 3855v241h1687v-241h-1687z" />
    <glyph glyph-name="D" unicode="D" 
d="M240 0v240h1446v-240h-1446zM1686 240v241h482v-241h-482zM2168 481v482h241v-482h-241zM1445 1204v1446h241v-1446h-241zM963 963v2169h241v-241h241v-241h-241v-1446h241v-241h-482zM2409 963v2169h241v-2169h-241zM2168 3132v482h241v-482h-241zM0 240v3615h240v-3615
h-240zM1686 3614v241h482v-241h-482zM240 3855v241h1446v-241h-1446z" />
    <glyph glyph-name="E" unicode="E" 
d="M240 0v240h2169v-240h-2169zM2409 240v723h241v-723h-241zM963 963v723h964v-241h-723v-241h1205v-241h-1446zM1927 1686v723h241v-723h-241zM963 2409v723h1446v-241h-1205v-241h723v-241h-964zM0 240v3615h240v-3615h-240zM2409 3132v723h241v-723h-241zM240 3855v241
h2169v-241h-2169z" />
    <glyph glyph-name="F" unicode="F" 
d="M240 0v240h723v-240h-723zM963 240v1446h964v-241h-723v-1205h-241zM1927 1686v723h241v-723h-241zM963 2409v723h1446v-241h-1205v-241h723v-241h-964zM0 240v3615h240v-3615h-240zM2409 3132v723h241v-723h-241zM240 3855v241h2169v-241h-2169z" />
    <glyph glyph-name="G" unicode="G" 
d="M481 0v240h1687v-240h-1687zM240 240v241h241v-241h-241zM2168 240v241h241v-241h-241zM1204 963v241h482v-241h-482zM2409 481v1446h241v-1446h-241zM1686 2409v241h723v-241h-723zM963 1204v1687h241v-723h1205v-241h-1205v-723h-241zM1445 2650v241h-241v241h482v-482
h-241zM0 481v3133h240v-3133h-240zM2409 2650v964h241v-964h-241zM240 3614v241h241v-241h-241zM2168 3614v241h241v-241h-241zM481 3855v241h1687v-241h-1687z" />
    <glyph glyph-name="H" unicode="H" 
d="M240 0v240h723v-240h-723zM1686 0v240h723v-240h-723zM963 240v1446h241v-1446h-241zM1445 240v1446h241v-1446h-241zM1204 1686v241h241v-241h-241zM1204 2650v241h241v-241h-241zM0 240v3615h240v-3615h-240zM963 2891v964h241v-964h-241zM1445 2891v964h241v-964h-241
zM2409 240v3615h241v-3615h-241zM240 3855v241h723v-241h-723zM1686 3855v241h723v-241h-723z" />
    <glyph glyph-name="I" unicode="I" horiz-adv-x="1445" 
d="M240 0v240h723v-240h-723zM0 240v3615h240v-3615h-240zM963 240v3615h241v-3615h-241zM240 3855v241h723v-241h-723z" />
    <glyph glyph-name="J" unicode="J" 
d="M481 0v240h1446v-240h-1446zM240 240v241h241v-241h-241zM1927 240v241h241v-241h-241zM2168 481v482h241v-482h-241zM0 481v964h240v-964h-240zM963 963v482h241v-241h241v-241h-482zM240 1445v241h723v-241h-723zM1445 1204v2651h241v-2651h-241zM2409 963v2892h241
v-2892h-241zM1686 3855v241h723v-241h-723z" />
    <glyph glyph-name="K" unicode="K" 
d="M240 0v240h723v-240h-723zM1686 0v240h723v-240h-723zM1445 240v723h241v-723h-241zM2409 240v964h241v-964h-241zM963 240v1446h241v-241h241v-482h-241v-723h-241zM2168 1204v482h241v-482h-241zM1927 1686v241h241v-241h-241zM1686 1927v241h241v-241h-241zM1445 2168
v482h241v-482h-241zM1686 2650v241h241v-241h-241zM1927 2891v241h241v-241h-241zM2168 3132v241h241v-241h-241zM0 240v3615h240v-3615h-240zM963 3132v723h241v-241h241v-241h-241v-241h-241zM1445 3614v241h241v-241h-241zM2409 3373v482h241v-482h-241zM240 3855v241
h723v-241h-723zM1686 3855v241h723v-241h-723z" />
    <glyph glyph-name="L" unicode="L" horiz-adv-x="3132" 
d="M240 0v240h2410v-240h-2410zM2650 240v723h241v-723h-241zM1204 963v241h1446v-241h-1446zM0 240v3615h240v-3615h-240zM963 1204v2651h241v-2651h-241zM240 3855v241h723v-241h-723z" />
    <glyph glyph-name="M" unicode="M" horiz-adv-x="3373" 
d="M240 0v240h723v-240h-723zM2168 0v240h723v-240h-723zM1445 1686v241h241v-241h-241zM963 240v2169h241v-241h241v-241h-241v-1687h-241zM1927 240v1687h-241v241h241v241h241v-2169h-241zM1445 2891v241h241v-241h-241zM1204 3132v241h241v-241h-241zM1686 3132v241h241
v-241h-241zM0 240v3615h240v-3615h-240zM963 3373v482h241v-482h-241zM1927 3373v482h241v-482h-241zM2891 240v3615h241v-3615h-241zM240 3855v241h723v-241h-723zM2168 3855v241h723v-241h-723z" />
    <glyph glyph-name="N" unicode="N" horiz-adv-x="3373" 
d="M240 0v240h723v-240h-723zM2168 0v240h723v-240h-723zM1927 240v241h241v-241h-241zM1686 481v482h241v-482h-241zM1445 963v482h241v-482h-241zM963 240v1687h241v-241h241v-241h-241v-1205h-241zM1445 2650v482h241v-482h-241zM1204 3132v482h241v-482h-241zM0 240
v3615h240v-3615h-240zM963 3614v241h241v-241h-241zM1927 2168v241h-241v241h241v1205h241v-1687h-241zM2891 240v3615h241v-3615h-241zM240 3855v241h723v-241h-723zM2168 3855v241h723v-241h-723z" />
    <glyph glyph-name="O" unicode="O" 
d="M963 0v240h723v-240h-723zM481 240v241h482v-241h-482zM1686 240v241h482v-241h-482zM240 481v482h241v-482h-241zM2168 481v482h241v-482h-241zM963 1445v964h241v-241h241v-241h-241v-241h241v241h241v-482h-723zM0 963v2169h240v-2169h-240zM2409 963v2169h241v-2169
h-241zM240 3132v482h241v-482h-241zM2168 3132v482h241v-482h-241zM481 3614v241h482v-241h-482zM1686 3614v241h482v-241h-482zM963 3855v241h723v-241h-723z" />
    <glyph glyph-name="P" unicode="P" 
d="M240 0v240h723v-240h-723zM963 240v1446h1205v-241h-964v-1205h-241zM2168 1686v241h241v-241h-241zM963 2409v482h241v-241h241v-241h-482zM2409 1927v1687h241v-1687h-241zM0 240v3615h240v-3615h-240zM2168 3614v241h241v-241h-241zM240 3855v241h1928v-241h-1928z
" />
    <glyph glyph-name="Q" unicode="Q" horiz-adv-x="3614" 
d="M963 0v240h723v-240h-723zM2409 0v240h723v-240h-723zM481 240v241h482v-241h-482zM1686 240v241h241v-241h-241zM2168 240v241h241v-241h-241zM1927 481v241h241v-241h-241zM240 481v482h241v-482h-241zM1686 722v241h241v-241h-241zM3132 240v723h241v-723h-241z
M2891 963v241h241v-241h-241zM2650 1204v241h241v-241h-241zM963 1445v964h241v-241h482v-482h-241v241h-241v-241h241v-241h-482zM0 963v2169h240v-2169h-240zM2409 1445v1687h241v-1687h-241zM240 3132v482h241v-482h-241zM2168 3132v482h241v-482h-241zM481 3614v241h482
v-241h-482zM1686 3614v241h482v-241h-482zM963 3855v241h723v-241h-723z" />
    <glyph glyph-name="R" unicode="R" 
d="M240 0v240h723v-240h-723zM1686 0v240h723v-240h-723zM1445 240v241h241v-241h-241zM2409 240v723h241v-723h-241zM2168 963v723h241v-723h-241zM1927 1686v241h241v-241h-241zM2168 1927v241h241v-241h-241zM963 240v2169h241v-1687h241v-241h-241v-241h-241zM1204 2409
v241h241v-241h-241zM2409 2168v1446h241v-1446h-241zM0 240v3615h240v-3615h-240zM2168 3614v241h241v-241h-241zM240 3855v241h1928v-241h-1928z" />
    <glyph glyph-name="S" unicode="S" 
d="M722 0v240h1205v-240h-1205zM481 240v241h241v-241h-241zM1927 240v241h241v-241h-241zM240 481v241h241v-241h-241zM2168 481v241h241v-241h-241zM0 722v964h240v-964h-240zM1204 1445v241h241v-241h-241zM2409 722v1446h241v-1446h-241zM2168 2168v241h-723v241h964
v-482h-241zM1204 2650v241h241v-241h-241zM240 1686v241h-240v1446h240v-1205h241v-241h723v-241h-964zM2409 2650v723h241v-723h-241zM240 3373v241h241v-241h-241zM2168 3373v241h241v-241h-241zM481 3614v241h482v-241h-482zM1686 3614v241h482v-241h-482zM963 3855v241
h723v-241h-723z" />
    <glyph glyph-name="T" unicode="T" horiz-adv-x="3373" 
d="M1204 0v240h723v-240h-723zM963 240v2651h-723v241h964v-2892h-241zM1927 240v2892h964v-241h-723v-2651h-241zM0 3132v723h240v-723h-240zM2891 3132v723h241v-723h-241zM240 3855v241h2651v-241h-2651z" />
    <glyph glyph-name="U" unicode="U" 
d="M722 0v240h1205v-240h-1205zM481 240v241h241v-241h-241zM1927 240v241h241v-241h-241zM240 481v482h241v-482h-241zM2168 481v482h241v-482h-241zM1204 963v241h241v-241h-241zM0 963v2892h240v-2892h-240zM963 1204v2651h241v-2651h-241zM1445 1204v2651h241v-2651
h-241zM2409 963v2892h241v-2892h-241zM240 3855v241h723v-241h-723zM1686 3855v241h723v-241h-723z" />
    <glyph glyph-name="V" unicode="V" 
d="M963 0v240h723v-240h-723zM722 240v723h241v-723h-241zM1686 240v723h241v-723h-241zM481 963v964h241v-964h-241zM1927 963v964h241v-964h-241zM1204 1445v964h241v-964h-241zM240 1927v964h241v-964h-241zM2168 1927v964h241v-964h-241zM963 2409v1205h241v-1205h-241z
M1445 2409v1205h241v-1205h-241zM0 2891v964h240v-964h-240zM722 3614v241h241v-241h-241zM1686 3614v241h241v-241h-241zM2409 2891v964h241v-964h-241zM240 3855v241h482v-241h-482zM1927 3855v241h482v-241h-482z" />
    <glyph glyph-name="W" unicode="W" horiz-adv-x="3373" 
d="M240 0v240h723v-240h-723zM2168 0v240h723v-240h-723zM963 240v482h241v-482h-241zM1927 240v482h241v-482h-241zM1204 722v241h241v-241h-241zM1686 722v241h241v-241h-241zM1445 963v241h241v-241h-241zM1445 2168v241h241v-241h-241zM0 240v3615h240v-3615h-240z
M963 1686v2169h241v-1687h241v-241h-241v-241h-241zM1927 1686v241h-241v241h241v1687h241v-2169h-241zM2891 240v3615h241v-3615h-241zM240 3855v241h723v-241h-723zM2168 3855v241h723v-241h-723z" />
    <glyph glyph-name="X" unicode="X" 
d="M240 0v240h723v-240h-723zM1686 0v240h723v-240h-723zM963 240v964h241v-964h-241zM1445 240v964h241v-964h-241zM0 240v1205h240v-1205h-240zM2409 240v1205h241v-1205h-241zM240 1445v482h241v-482h-241zM1204 1204v723h241v-723h-241zM2168 1445v482h241v-482h-241z
M481 1927v482h241v-482h-241zM1927 1927v482h241v-482h-241zM240 2409v482h241v-482h-241zM2168 2409v482h241v-482h-241zM1204 2650v482h241v-482h-241zM0 2891v964h240v-964h-240zM963 3132v723h241v-723h-241zM1445 3132v723h241v-723h-241zM2409 2891v964h241v-964h-241
zM240 3855v241h723v-241h-723zM1686 3855v241h723v-241h-723z" />
    <glyph glyph-name="Y" unicode="Y" 
d="M963 0v240h723v-240h-723zM722 240v1446h241v-1446h-241zM1686 240v1446h241v-1446h-241zM481 1686v241h241v-241h-241zM1927 1686v241h241v-241h-241zM240 1927v482h241v-482h-241zM2168 1927v482h241v-482h-241zM1204 2409v241h241v-241h-241zM0 2409v1446h240v-1446
h-240zM963 2650v1205h241v-1205h-241zM1445 2650v1205h241v-1205h-241zM2409 2409v1446h241v-1446h-241zM240 3855v241h723v-241h-723zM1686 3855v241h723v-241h-723z" />
    <glyph glyph-name="Z" unicode="Z" 
d="M240 0v240h2169v-240h-2169zM0 240v723h240v-723h-240zM2409 240v723h241v-723h-241zM240 963v482h241v-482h-241zM1204 963v482h241v-241h964v-241h-1205zM481 1445v482h241v-482h-241zM1445 1445v482h241v-482h-241zM722 1927v241h241v-241h-241zM1686 1927v241h241
v-241h-241zM963 2168v482h241v-482h-241zM1927 2168v482h241v-482h-241zM1204 2650v241h-964v241h1205v-482h-241zM2168 2650v482h241v-482h-241zM0 3132v723h240v-723h-240zM2409 3132v723h241v-723h-241zM240 3855v241h2169v-241h-2169z" />
    <glyph glyph-name="a" unicode="a" 
d="M240 0v240h723v-240h-723zM1686 0v240h723v-240h-723zM963 240v482h241v-482h-241zM1445 240v482h241v-482h-241zM1204 722v241h241v-241h-241zM963 1927v482h241v-241h241v-241h-482zM0 240v2892h240v-2892h-240zM2409 240v2892h241v-2892h-241zM240 3132v482h241v-482
h-241zM2168 3132v482h241v-482h-241zM481 3614v241h241v-241h-241zM1927 3614v241h241v-241h-241zM722 3855v241h1205v-241h-1205z" />
    <glyph glyph-name="b" unicode="b" 
d="M240 0v240h1928v-240h-1928zM2168 240v241h241v-241h-241zM2409 481v1205h241v-1205h-241zM2168 1686v482h241v-482h-241zM1927 2168v241h241v-241h-241zM2168 2409v241h241v-241h-241zM963 963v1928h241v-1205h241v-241h-241v-241h241v241h241v-482h-723zM1204 2891v241
h241v-241h-241zM2409 2650v964h241v-964h-241zM0 240v3615h240v-3615h-240zM2168 3614v241h241v-241h-241zM240 3855v241h1928v-241h-1928z" />
    <glyph glyph-name="c" unicode="c" 
d="M481 0v240h1687v-240h-1687zM240 240v241h241v-241h-241zM2168 240v241h241v-241h-241zM1204 963v241h482v-241h-482zM2409 481v723h241v-723h-241zM1686 1204v241h723v-241h-723zM963 1204v1687h241v-1687h-241zM1686 2650v241h723v-241h-723zM1204 2891v241h482v-241
h-482zM0 481v3133h240v-3133h-240zM2409 2891v723h241v-723h-241zM240 3614v241h241v-241h-241zM2168 3614v241h241v-241h-241zM481 3855v241h1687v-241h-1687z" />
    <glyph glyph-name="d" unicode="d" 
d="M240 0v240h1446v-240h-1446zM1686 240v241h482v-241h-482zM2168 481v482h241v-482h-241zM1445 1204v1446h241v-1446h-241zM963 963v2169h241v-241h241v-241h-241v-1446h241v-241h-482zM2409 963v2169h241v-2169h-241zM2168 3132v482h241v-482h-241zM0 240v3615h240v-3615
h-240zM1686 3614v241h482v-241h-482zM240 3855v241h1446v-241h-1446z" />
    <glyph glyph-name="e" unicode="e" 
d="M240 0v240h2169v-240h-2169zM2409 240v723h241v-723h-241zM963 963v723h964v-241h-723v-241h1205v-241h-1446zM1927 1686v723h241v-723h-241zM963 2409v723h1446v-241h-1205v-241h723v-241h-964zM0 240v3615h240v-3615h-240zM2409 3132v723h241v-723h-241zM240 3855v241
h2169v-241h-2169z" />
    <glyph glyph-name="f" unicode="f" 
d="M240 0v240h723v-240h-723zM963 240v1446h964v-241h-723v-1205h-241zM1927 1686v723h241v-723h-241zM963 2409v723h1446v-241h-1205v-241h723v-241h-964zM0 240v3615h240v-3615h-240zM2409 3132v723h241v-723h-241zM240 3855v241h2169v-241h-2169z" />
    <glyph glyph-name="g" unicode="g" 
d="M481 0v240h1687v-240h-1687zM240 240v241h241v-241h-241zM2168 240v241h241v-241h-241zM1204 963v241h482v-241h-482zM2409 481v1446h241v-1446h-241zM1686 2409v241h723v-241h-723zM963 1204v1687h241v-723h1205v-241h-1205v-723h-241zM1445 2650v241h-241v241h482v-482
h-241zM0 481v3133h240v-3133h-240zM2409 2650v964h241v-964h-241zM240 3614v241h241v-241h-241zM2168 3614v241h241v-241h-241zM481 3855v241h1687v-241h-1687z" />
    <glyph glyph-name="h" unicode="h" 
d="M240 0v240h723v-240h-723zM1686 0v240h723v-240h-723zM963 240v1446h241v-1446h-241zM1445 240v1446h241v-1446h-241zM1204 1686v241h241v-241h-241zM1204 2650v241h241v-241h-241zM0 240v3615h240v-3615h-240zM963 2891v964h241v-964h-241zM1445 2891v964h241v-964h-241
zM2409 240v3615h241v-3615h-241zM240 3855v241h723v-241h-723zM1686 3855v241h723v-241h-723z" />
    <glyph glyph-name="i" unicode="i" horiz-adv-x="1445" 
d="M240 0v240h723v-240h-723zM0 240v3615h240v-3615h-240zM963 240v3615h241v-3615h-241zM240 3855v241h723v-241h-723z" />
    <glyph glyph-name="j" unicode="j" 
d="M481 0v240h1446v-240h-1446zM240 240v241h241v-241h-241zM1927 240v241h241v-241h-241zM2168 481v482h241v-482h-241zM0 481v964h240v-964h-240zM963 963v482h241v-241h241v-241h-482zM240 1445v241h723v-241h-723zM1445 1204v2651h241v-2651h-241zM2409 963v2892h241
v-2892h-241zM1686 3855v241h723v-241h-723z" />
    <glyph glyph-name="k" unicode="k" 
d="M240 0v240h723v-240h-723zM1686 0v240h723v-240h-723zM1445 240v723h241v-723h-241zM2409 240v964h241v-964h-241zM963 240v1446h241v-241h241v-482h-241v-723h-241zM2168 1204v482h241v-482h-241zM1927 1686v241h241v-241h-241zM1686 1927v241h241v-241h-241zM1445 2168
v482h241v-482h-241zM1686 2650v241h241v-241h-241zM1927 2891v241h241v-241h-241zM2168 3132v241h241v-241h-241zM0 240v3615h240v-3615h-240zM963 3132v723h241v-241h241v-241h-241v-241h-241zM1445 3614v241h241v-241h-241zM2409 3373v482h241v-482h-241zM240 3855v241
h723v-241h-723zM1686 3855v241h723v-241h-723z" />
    <glyph glyph-name="l" unicode="l" horiz-adv-x="3132" 
d="M240 0v240h2410v-240h-2410zM2650 240v723h241v-723h-241zM1204 963v241h1446v-241h-1446zM0 240v3615h240v-3615h-240zM963 1204v2651h241v-2651h-241zM240 3855v241h723v-241h-723z" />
    <glyph glyph-name="m" unicode="m" horiz-adv-x="3373" 
d="M240 0v240h723v-240h-723zM2168 0v240h723v-240h-723zM1445 1686v241h241v-241h-241zM963 240v2169h241v-241h241v-241h-241v-1687h-241zM1927 240v1687h-241v241h241v241h241v-2169h-241zM1445 2891v241h241v-241h-241zM1204 3132v241h241v-241h-241zM1686 3132v241h241
v-241h-241zM0 240v3615h240v-3615h-240zM963 3373v482h241v-482h-241zM1927 3373v482h241v-482h-241zM2891 240v3615h241v-3615h-241zM240 3855v241h723v-241h-723zM2168 3855v241h723v-241h-723z" />
    <glyph glyph-name="n" unicode="n" horiz-adv-x="3373" 
d="M240 0v240h723v-240h-723zM2168 0v240h723v-240h-723zM1927 240v241h241v-241h-241zM1686 481v482h241v-482h-241zM1445 963v482h241v-482h-241zM963 240v1687h241v-241h241v-241h-241v-1205h-241zM1445 2650v482h241v-482h-241zM1204 3132v482h241v-482h-241zM0 240
v3615h240v-3615h-240zM963 3614v241h241v-241h-241zM1927 2168v241h-241v241h241v1205h241v-1687h-241zM2891 240v3615h241v-3615h-241zM240 3855v241h723v-241h-723zM2168 3855v241h723v-241h-723z" />
    <glyph glyph-name="o" unicode="o" 
d="M963 0v240h723v-240h-723zM481 240v241h482v-241h-482zM1686 240v241h482v-241h-482zM240 481v482h241v-482h-241zM2168 481v482h241v-482h-241zM963 1445v964h241v-241h241v-241h-241v-241h241v241h241v-482h-723zM0 963v2169h240v-2169h-240zM2409 963v2169h241v-2169
h-241zM240 3132v482h241v-482h-241zM2168 3132v482h241v-482h-241zM481 3614v241h482v-241h-482zM1686 3614v241h482v-241h-482zM963 3855v241h723v-241h-723z" />
    <glyph glyph-name="p" unicode="p" 
d="M240 0v240h723v-240h-723zM963 240v1446h1205v-241h-964v-1205h-241zM2168 1686v241h241v-241h-241zM963 2409v482h241v-241h241v-241h-482zM2409 1927v1687h241v-1687h-241zM0 240v3615h240v-3615h-240zM2168 3614v241h241v-241h-241zM240 3855v241h1928v-241h-1928z
" />
    <glyph glyph-name="q" unicode="q" horiz-adv-x="3614" 
d="M963 0v240h723v-240h-723zM2409 0v240h723v-240h-723zM481 240v241h482v-241h-482zM1686 240v241h241v-241h-241zM2168 240v241h241v-241h-241zM1927 481v241h241v-241h-241zM240 481v482h241v-482h-241zM1686 722v241h241v-241h-241zM3132 240v723h241v-723h-241z
M2891 963v241h241v-241h-241zM2650 1204v241h241v-241h-241zM963 1445v964h241v-241h482v-482h-241v241h-241v-241h241v-241h-482zM0 963v2169h240v-2169h-240zM2409 1445v1687h241v-1687h-241zM240 3132v482h241v-482h-241zM2168 3132v482h241v-482h-241zM481 3614v241h482
v-241h-482zM1686 3614v241h482v-241h-482zM963 3855v241h723v-241h-723z" />
    <glyph glyph-name="r" unicode="r" 
d="M240 0v240h723v-240h-723zM1686 0v240h723v-240h-723zM1445 240v241h241v-241h-241zM2409 240v723h241v-723h-241zM2168 963v723h241v-723h-241zM1927 1686v241h241v-241h-241zM2168 1927v241h241v-241h-241zM963 240v2169h241v-1687h241v-241h-241v-241h-241zM1204 2409
v241h241v-241h-241zM2409 2168v1446h241v-1446h-241zM0 240v3615h240v-3615h-240zM2168 3614v241h241v-241h-241zM240 3855v241h1928v-241h-1928z" />
    <glyph glyph-name="s" unicode="s" 
d="M722 0v240h1205v-240h-1205zM481 240v241h241v-241h-241zM1927 240v241h241v-241h-241zM240 481v241h241v-241h-241zM2168 481v241h241v-241h-241zM0 722v964h240v-964h-240zM1204 1445v241h241v-241h-241zM2409 722v1446h241v-1446h-241zM2168 2168v241h-723v241h964
v-482h-241zM1204 2650v241h241v-241h-241zM240 1686v241h-240v1446h240v-1205h241v-241h723v-241h-964zM2409 2650v723h241v-723h-241zM240 3373v241h241v-241h-241zM2168 3373v241h241v-241h-241zM481 3614v241h482v-241h-482zM1686 3614v241h482v-241h-482zM963 3855v241
h723v-241h-723z" />
    <glyph glyph-name="t" unicode="t" horiz-adv-x="3373" 
d="M1204 0v240h723v-240h-723zM963 240v2651h-723v241h964v-2892h-241zM1927 240v2892h964v-241h-723v-2651h-241zM0 3132v723h240v-723h-240zM2891 3132v723h241v-723h-241zM240 3855v241h2651v-241h-2651z" />
    <glyph glyph-name="u" unicode="u" 
d="M722 0v240h1205v-240h-1205zM481 240v241h241v-241h-241zM1927 240v241h241v-241h-241zM240 481v482h241v-482h-241zM2168 481v482h241v-482h-241zM1204 963v241h241v-241h-241zM0 963v2892h240v-2892h-240zM963 1204v2651h241v-2651h-241zM1445 1204v2651h241v-2651
h-241zM2409 963v2892h241v-2892h-241zM240 3855v241h723v-241h-723zM1686 3855v241h723v-241h-723z" />
    <glyph glyph-name="v" unicode="v" 
d="M963 0v240h723v-240h-723zM722 240v723h241v-723h-241zM1686 240v723h241v-723h-241zM481 963v964h241v-964h-241zM1927 963v964h241v-964h-241zM1204 1445v964h241v-964h-241zM240 1927v964h241v-964h-241zM2168 1927v964h241v-964h-241zM963 2409v1205h241v-1205h-241z
M1445 2409v1205h241v-1205h-241zM0 2891v964h240v-964h-240zM722 3614v241h241v-241h-241zM1686 3614v241h241v-241h-241zM2409 2891v964h241v-964h-241zM240 3855v241h482v-241h-482zM1927 3855v241h482v-241h-482z" />
    <glyph glyph-name="w" unicode="w" horiz-adv-x="3373" 
d="M240 0v240h723v-240h-723zM2168 0v240h723v-240h-723zM963 240v482h241v-482h-241zM1927 240v482h241v-482h-241zM1204 722v241h241v-241h-241zM1686 722v241h241v-241h-241zM1445 963v241h241v-241h-241zM1445 2168v241h241v-241h-241zM0 240v3615h240v-3615h-240z
M963 1686v2169h241v-1687h241v-241h-241v-241h-241zM1927 1686v241h-241v241h241v1687h241v-2169h-241zM2891 240v3615h241v-3615h-241zM240 3855v241h723v-241h-723zM2168 3855v241h723v-241h-723z" />
    <glyph glyph-name="x" unicode="x" 
d="M240 0v240h723v-240h-723zM1686 0v240h723v-240h-723zM963 240v964h241v-964h-241zM1445 240v964h241v-964h-241zM0 240v1205h240v-1205h-240zM2409 240v1205h241v-1205h-241zM240 1445v482h241v-482h-241zM1204 1204v723h241v-723h-241zM2168 1445v482h241v-482h-241z
M481 1927v482h241v-482h-241zM1927 1927v482h241v-482h-241zM240 2409v482h241v-482h-241zM2168 2409v482h241v-482h-241zM1204 2650v482h241v-482h-241zM0 2891v964h240v-964h-240zM963 3132v723h241v-723h-241zM1445 3132v723h241v-723h-241zM2409 2891v964h241v-964h-241
zM240 3855v241h723v-241h-723zM1686 3855v241h723v-241h-723z" />
    <glyph glyph-name="y" unicode="y" 
d="M963 0v240h723v-240h-723zM722 240v1446h241v-1446h-241zM1686 240v1446h241v-1446h-241zM481 1686v241h241v-241h-241zM1927 1686v241h241v-241h-241zM240 1927v482h241v-482h-241zM2168 1927v482h241v-482h-241zM1204 2409v241h241v-241h-241zM0 2409v1446h240v-1446
h-240zM963 2650v1205h241v-1205h-241zM1445 2650v1205h241v-1205h-241zM2409 2409v1446h241v-1446h-241zM240 3855v241h723v-241h-723zM1686 3855v241h723v-241h-723z" />
    <glyph glyph-name="z" unicode="z" 
d="M240 0v240h2169v-240h-2169zM0 240v723h240v-723h-240zM2409 240v723h241v-723h-241zM240 963v482h241v-482h-241zM1204 963v482h241v-241h964v-241h-1205zM481 1445v482h241v-482h-241zM1445 1445v482h241v-482h-241zM722 1927v241h241v-241h-241zM1686 1927v241h241
v-241h-241zM963 2168v482h241v-482h-241zM1927 2168v482h241v-482h-241zM1204 2650v241h-964v241h1205v-482h-241zM2168 2650v482h241v-482h-241zM0 3132v723h240v-723h-240zM2409 3132v723h241v-723h-241zM240 3855v241h2169v-241h-2169z" />
  </font>
</defs>
</svg>
